<svg version="1" xmlns="http://www.w3.org/2000/svg" width="933.333" height="933.333" viewBox="0 0 700.000000 700.000000"><path d="M332 .7C211.8 7.3 105.9 72.3 46 176.5c-52.3 90.9-60.1 205-20.8 304C65.1 580.8 152.5 659.1 255.7 687c34.3 9.3 58.5 12.5 94.8 12.4 28.7 0 43-1.3 69-6.5C557 665.7 665.7 557 692.9 419.5c5.2-26 6.5-40.3 6.5-69 .1-36.3-3.1-60.5-12.4-94.8C659.1 152.5 580.8 65.1 480.5 25.2 434.1 6.8 381-2 332 .7zm102.5 347.7c44.3 108.8 80.7 198.7 81 199.7.6 1.9-.5 1.9-42.7 1.7l-43.3-.3-7.9-20.8-7.9-20.7H286.3l-5.8 15.8c-3.1 8.6-6.6 18.1-7.7 20.9l-1.9 5.3h-43.5c-23.9 0-43.4-.3-43.4-.6 0-.4 36.1-89.4 80.1-197.8 44.1-108.4 80.5-198.1 81-199.4.8-2 1.5-2.3 5-2l4 .3 80.4 197.9z"/><path d="M349.5 338.1c-.2.8-8.3 23-17.8 49.4l-17.3 48 34.9.3c19.3.1 35.2.1 35.4-.1.3-.4-33.5-97.8-34.2-98.6-.3-.2-.7.2-1 1z"/></svg>