<svg version="1" xmlns="http://www.w3.org/2000/svg" width="2666.667" height="2666.667" viewBox="0 0 2000.000000 2000.000000"><path d="M952 1.1C738.4 11.5 532.8 90.4 367.5 225.5 278 298.6 201.6 387 142.3 486c-36.7 61.2-68.2 129.6-90.8 197.5-92.4 276.6-59.1 580.4 90.8 830.5 84.5 141 202.7 259.2 343.7 343.7 61.2 36.7 129.6 68.2 197.5 90.8 276.6 92.4 580.4 59.1 830.5-90.8 141-84.5 259.2-202.7 343.7-343.7 36.7-61.2 68.2-129.6 90.8-197.5 92.4-276.6 59.1-580.4-90.8-830.5-84.5-141-202.7-259.2-343.7-343.7-61.2-36.7-129.6-68.2-197.5-90.8C1200 12.6 1073.9-4.8 952 1.1zm293.3 996.7c128.5 316.6 233.7 576 233.7 576.5 0 .4-56.3.6-125.1.5l-125.1-.3-22.3-59-22.2-59-184.5-.3-184.5-.2-20.3 55.7c-11.1 30.7-20.9 57.5-21.7 59.5l-1.5 3.8h-126c-100.4 0-125.9-.3-125.5-1.3.6-1.6 464.5-1144.2 466.3-1148.5l1.3-3.2h23.6l233.8 575.8z"/><path d="M948.7 1101.7c-28.5 79.1-51.7 144.1-51.7 144.5 0 .5 46 .8 102.1.8 96.8 0 102.1-.1 101.6-1.8-.3-1.2-90.3-259.1-99.1-284-1.1-3.2-3.5 3.2-52.9 140.5z"/></svg>